<svg xmlns="http://www.w3.org/2000/svg" fill="none" viewBox="0 0 96 96" id="Docker-Icon--Streamline-Svg-Logos">
  <desc>
    Docker Icon Streamline Icon: https://streamlinehq.com
  </desc>
  <path fill="#2396ed" d="M93.0597 39.9682c-2.1167 -1.4687 -6.9675 -2.0195 -10.7599 -1.2851 -0.441 -3.6717 -2.4695 -6.8845 -5.9974 -9.7301l-2.0285 -1.4687 -1.4111 2.1113c-1.7639 2.7538 -2.6459 6.6091 -2.3813 10.2808 0.0882 1.2851 0.5292 3.5799 1.8521 5.5994 -1.2347 0.7343 -3.7924 1.6523 -7.1439 1.6523H1.42402l-0.17639 0.7343c-0.617377 3.6717 -0.617377 15.1459 6.6147 23.958C13.3305 78.5213 21.4445 81.9177 32.1162 81.9177c23.1074 0 40.2174 -11.107 48.2433 -31.2097 3.175 0.0918 9.9661 0 13.4058 -6.8845 0.0882 -0.1836 0.2645 -0.5507 0.8819 -1.9276L95 41.1615l-1.9403 -1.1933ZM52.4013 14.0825h-9.7015v9.1793h9.7015v-9.1793Zm0 11.0152h-9.7015v9.1793h9.7015v-9.1793Zm-11.4655 0h-9.7015v9.1793h9.7015v-9.1793Zm-11.4654 0h-9.7016v9.1793h9.7016v-9.1793ZM18.0049 36.1129H8.30331v9.1793h9.70159v-9.1793Zm11.4655 0h-9.7016v9.1793h9.7016v-9.1793Zm11.4654 0h-9.7015v9.1793h9.7015v-9.1793Zm11.4655 0h-9.7015v9.1793h9.7015v-9.1793Zm11.4655 0h-9.7016v9.1793h9.7016v-9.1793Z" stroke-width="1"></path>
</svg>