<svg xmlns="http://www.w3.org/2000/svg" fill="none" viewBox="0 0 96 96" id="Electron--Streamline-Svg-Logos">
  <desc>
    Electron Streamline Icon: https://streamlinehq.com
  </desc>
  <path fill="#47848f" d="M35.2357 21.2039c-12.2839 -2.2373 -21.9963 0.1044 -25.86718 6.809 -2.88855 5.0031 -2.06288 11.6364 2.00238 18.727 0.346 0.6035 1.1158 0.8122 1.7193 0.4662 0.6035 -0.346 0.8123 -1.1158 0.4662 -1.7193 -3.66202 -6.3873 -4.3746 -12.112 -2.0062 -16.2143 3.2156 -5.5695 11.8789 -7.6582 23.2341 -5.5901 0.6844 0.1247 1.3403 -0.3291 1.4649 -1.0135 0.1247 -0.6844 -0.3291 -1.3403 -1.0135 -1.465ZM53.4022 9.79392c-1.0024 1.93858 -3.0258 3.26358 -5.3586 3.26358 -3.3296 0 -6.0288 -2.6991 -6.0288 -6.02874C42.0148 3.69917 44.714 1 48.0436 1c3.3295 0 6.0287 2.69917 6.0287 6.02876 0 0.0871 -0.0018 0.17377 -0.0055 0.25996C64.0464 12.4501 70.9811 30.0506 70.9811 50.3846c0 8.363 -1.1693 16.3885 -3.3463 23.3455 -0.2078 0.6639 -0.9144 1.0337 -1.5783 0.8259 -0.6639 -0.2077 -1.0337 -0.9144 -0.826 -1.5783 2.099 -6.7075 3.2313 -14.4796 3.2313 -22.5931 0 -19.1467 -6.3645 -35.6225 -15.0596 -40.59068ZM10.2205 66.4838c0.1487 -0.0109 0.2989 -0.0165 0.4503 -0.0165 3.3296 0 6.0288 2.6991 6.0288 6.0287 0 3.3296 -2.6992 6.0288 -6.0288 6.0288 -3.32954 0 -6.02871 -2.6992 -6.02871 -6.0288 0 -2.2666 1.25086 -4.2411 3.09993 -5.2708C6.83393 55.9575 18.6771 40.8533 36.5748 30.5201c7.4341 -4.2921 15.1749 -7.3386 22.4473 -8.8967 0.6802 -0.1458 1.3498 0.2875 1.4955 0.9678 0.1458 0.6802 -0.2875 1.3498 -0.9677 1.4955 -7.0086 1.5016 -14.5038 4.4514 -21.7155 8.6151 -16.855 9.7313 -28.00007 23.757 -27.6139 33.782Zm69.8672 8.9924c-0.5008 -0.879 -0.7869 -1.8962 -0.7869 -2.9802 0 -3.3296 2.6992 -6.0287 6.0287 -6.0287 3.3296 0 6.0288 2.6991 6.0288 6.0287 0 3.3296 -2.6992 6.0288 -6.0288 6.0288 -1.312 0 -2.5262 -0.4192 -3.5159 -1.1309 -9.6176 5.658 -27.9881 2.7722 -45.2758 -7.2088 -7.3591 -4.2488 -13.8119 -9.3684 -18.7788 -14.8267 -0.4683 -0.5145 -0.4307 -1.3112 0.0838 -1.7794 0.5145 -0.4682 1.3112 -0.4306 1.7794 0.0839 4.7876 5.2612 11.0361 10.2186 18.1753 14.3404 16.3151 9.4196 33.496 12.2227 42.2902 7.4729Zm-0.3947 -21.6501c-0.4495 0.5309 -1.2443 0.597 -1.7753 0.1475 -0.531 -0.4494 -0.597 -1.2442 -0.1476 -1.7752 7.434 -8.782 9.9384 -17.3044 6.7298 -22.8619 -2.3291 -4.0342 -7.5059 -6.2735 -14.6881 -6.3669 -0.6957 -0.0091 -1.2522 -0.5803 -1.2432 -1.2759 0.0091 -0.6956 0.5803 -1.2522 1.2759 -1.2431 7.9858 0.1038 13.9947 2.7031 16.8371 7.6263 3.863 6.6907 1.0546 16.2474 -6.9886 25.7492Zm-50.471 22.201c-0.2346 -0.6549 0.1062 -1.376 0.7612 -1.6105 0.6549 -0.2346 1.376 0.1062 1.6105 0.7612 3.8872 10.8544 10.0235 17.303 16.4499 17.303 4.622 0 9.1155 -3.3109 12.7738 -9.3963 0.3585 -0.5962 1.1323 -0.789 1.7286 -0.4306 0.5962 0.3585 0.789 1.1324 0.4306 1.7286C58.9059 91.1539 53.6858 95 48.0436 95c-7.7363 0 -14.6163 -7.23 -18.8216 -18.9729Zm59.6171 -3.5311c0 -1.9382 -1.5713 -3.5095 -3.5096 -3.5095 -1.9382 0 -3.5095 1.5713 -3.5095 3.5095 0 1.9383 1.5713 3.5095 3.5095 3.5095 1.9383 0 3.5096 -1.5712 3.5096 -3.5095Zm-78.1683 3.5095c1.9383 0 3.5096 -1.5712 3.5096 -3.5095 0 -1.9382 -1.5713 -3.5095 -3.5096 -3.5095 -1.9382 0 -3.50947 1.5713 -3.50947 3.5095 0 1.9383 1.57127 3.5095 3.50947 3.5095Zm37.3728 -65.4672c1.9382 0 3.5095 -1.57129 3.5095 -3.50954 0 -1.93825 -1.5713 -3.50952 -3.5095 -3.50952 -1.9383 0 -3.5096 1.57127 -3.5096 3.50952 0 1.93825 1.5713 3.50954 3.5096 3.50954Zm0.9208 44.1097c-2.3548 0.5088 -4.6747 -0.9877 -5.1845 -3.3424 -0.5078 -2.3548 0.9877 -4.6747 3.3425 -5.1845 2.3548 -0.5088 4.6747 0.9877 5.1845 3.3425 0.5088 2.3547 -0.9877 4.6746 -3.3425 5.1844Z" stroke-width="1"></path>
</svg>