<svg xmlns="http://www.w3.org/2000/svg" fill="none" viewBox="0 0 96 96" id="Git-Icon--Streamline-Svg-Logos">
  <desc>
    Git Icon Streamline Icon: https://streamlinehq.com
  </desc>
  <path fill="#de4c36" d="M93.227 43.8126 52.1852 2.77386c-2.3618 -2.363927 -6.1955 -2.363927 -8.5605 0l-8.5223 8.52234 10.811 10.8109c2.5124 -0.8488 5.3931 -0.2795 7.396 1.7235 2.0123 2.0153 2.5775 4.9207 1.708 7.4414l10.419 10.419c2.5207 -0.8684 5.4292 -0.3063 7.4425 1.7101 2.8136 2.8126 2.8136 7.3713 0 10.1859 -2.8147 2.8147 -7.3734 2.8147 -10.189 0 -2.1164 -2.1184 -2.6393 -5.227 -1.5677 -7.8344l-9.7167 -9.7166 -0.001 25.57c0.6858 0.3404 1.3335 0.7932 1.9049 1.3625 2.8136 2.8126 2.8136 7.3713 0 10.188 -2.8146 2.8136 -7.3754 2.8136 -10.1859 0 -2.8136 -2.8167 -2.8136 -7.3754 0 -10.188 0.6951 -0.6941 1.4996 -1.2191 2.3577 -1.5719V35.5883c-0.8581 -0.3506 -1.6615 -0.8725 -2.3577 -1.5718 -2.1319 -2.1288 -2.6445 -5.2569 -1.5522 -7.8746L30.915 15.4836 2.77372 43.6228c-2.36496 2.366 -2.36496 6.1997 0 8.5636L43.8155 93.2262c2.3629 2.3639 6.1956 2.3639 8.5616 0l40.8499 -40.849c2.364 -2.365 2.364 -6.2007 0 -8.5646Z" stroke-width="1"></path>
</svg>