<svg xmlns="http://www.w3.org/2000/svg" fill="none" viewBox="0 0 96 96" id="Javascript--Streamline-Svg-Logos">
  <desc>
    Javascript Streamline Icon: https://streamlinehq.com
  </desc>
  <path fill="#f7df1e" d="M1 1h94v94H1V1Z" stroke-width="1"></path>
  <path fill="#000000" d="m25.7165 79.5532 7.1935 -4.3534c1.3878 2.4606 2.6502 4.5424 5.6783 4.5424 2.9027 0 4.7327 -1.1354 4.7327 -5.5519V44.155h8.8336v30.1602c0 9.1493 -5.363 13.3138 -13.1876 13.3138 -7.0665 0 -11.1685 -3.6599 -13.2507 -8.0766" stroke-width="1"></path>
  <path fill="#000000" d="m56.9521 78.6067 7.1927 -4.1645c1.8934 3.0921 4.3543 5.3635 8.7078 5.3635 3.6602 0 5.9942 -1.83 5.9942 -4.354 0 -3.0287 -2.3976 -4.1015 -6.436 -5.8677l-2.2078 -0.9471c-6.3733 -2.7128 -10.6011 -6.12 -10.6011 -13.3134 0 -6.6254 5.0478 -11.6735 12.9354 -11.6735 5.6159 0 9.6541 1.9563 12.5564 7.0673l-6.8779 4.4167c-1.5144 -2.713 -3.1545 -3.7855 -5.6783 -3.7855 -2.5871 0 -4.2278 1.6405 -4.2278 3.7855 0 2.6502 1.6407 3.7231 5.4262 5.3638l2.2083 0.9464c7.5088 3.2183 11.7365 6.499 11.7365 13.8813 0 7.9509 -6.2466 12.3043 -14.6386 12.3043 -8.2028 0 -13.5033 -3.9119 -16.09 -9.0231Z" stroke-width="1"></path>
</svg>