<svg xmlns="http://www.w3.org/2000/svg" width="48" height="48" viewBox="0 0 48 48" fill="none">
  <rect width="48" height="48" rx="8" fill="#e5e7eb"/>
  <path d="M24 14C28.4183 14 32 17.5817 32 22C32 26.4183 28.4183 30 24 30C19.5817 30 16 26.4183 16 22C16 17.5817 19.5817 14 24 14ZM24 16C20.6863 16 18 18.6863 18 22C18 25.3137 20.6863 28 24 28C27.3137 28 30 25.3137 30 22C30 18.6863 27.3137 16 24 16Z" fill="#9ca3af"/>
  <path d="M24 32C18.4772 32 14 36.4772 14 42H16C16 37.5817 19.5817 34 24 34C28.4183 34 32 37.5817 32 42H34C34 36.4772 29.5228 32 24 32Z" fill="#9ca3af"/>
</svg>
