<svg xmlns="http://www.w3.org/2000/svg" fill="none" viewBox="0 0 96 96" id="React--Streamline-Svg-Logos">
  <desc>
    React Streamline Icon: https://streamlinehq.com
  </desc>
  <path fill="#00d8ff" d="M78.2869 33.2907c-0.9752 -0.3356 -1.9856 -0.6532 -3.026 -0.9535 0.171 -0.6979 0.3279 -1.3868 0.4675 -2.0639 2.2906 -11.1188 0.7929 -20.0763 -4.3212 -23.02542 -4.9038 -2.82785 -12.9235 0.12064 -21.0231 7.16942 -0.7788 0.6778 -1.5599 1.3955 -2.3406 2.1476 -0.5202 -0.4976 -1.0395 -0.9785 -1.5576 -1.4385 -8.4885 -7.53702 -16.997 -10.71323 -22.1061 -7.75554 -4.8991 2.83604 -6.3499 11.25684 -4.2881 21.79424 0.1991 1.0178 0.4319 2.0572 0.6951 3.114 -1.2042 0.3418 -2.3667 0.7063 -3.4791 1.0939C7.35577 36.8427 1 42.2806 1 47.9211c0 5.8255 6.82292 11.6686 17.1887 15.2116 0.818 0.2796 1.6668 0.5439 2.5415 0.7949 -0.2839 1.143 -0.5309 2.263 -0.7382 3.3554 -1.966 10.3545 -0.4307 18.5764 4.4554 21.3946 5.0468 2.9103 13.5168 -0.0812 21.7645 -7.2906 0.6518 -0.5699 1.3061 -1.1743 1.9614 -1.8077 0.8495 0.818 1.6977 1.5922 2.5413 2.3183 7.9888 6.8747 15.879 9.6506 20.7606 6.8246 5.0418 -2.9187 6.6803 -11.7509 4.553 -22.4968 -0.1624 -0.8207 -0.3515 -1.6591 -0.5638 -2.5125 0.5948 -0.1758 1.1787 -0.3574 1.7481 -0.5461C87.9887 59.5964 95 53.8244 95 47.9211c0 -5.6609 -6.5607 -11.1354 -16.7131 -14.6304Zm-2.3373 26.0644c-0.514 0.1702 -1.0414 0.3347 -1.5788 0.4941 -1.1897 -3.7662 -2.7953 -7.7709 -4.7601 -11.9086 1.875 -4.039 3.4185 -7.9926 4.5749 -11.7344 0.9615 0.2783 1.8948 0.5718 2.7942 0.8815 8.6985 2.9945 14.0046 7.4219 14.0046 10.8334 0 3.6338 -5.7304 8.351 -15.0348 11.434Zm-3.8607 7.6502c0.9406 4.7517 1.075 9.0477 0.4519 12.4062 -0.5598 3.0177 -1.6857 5.0297 -3.0778 5.8355 -2.9624 1.7147 -9.2974 -0.5141 -16.1295 -6.3934 -0.7833 -0.6739 -1.5722 -1.3936 -2.3636 -2.1552 2.6487 -2.8968 5.2958 -6.2644 7.8794 -10.0045 4.5442 -0.4033 8.8374 -1.0625 12.7308 -1.9625 0.1917 0.7735 0.362 1.5321 0.5088 2.2739ZM33.0467 84.9507c-2.8943 1.0222 -5.1994 1.0514 -6.5928 0.248 -2.9651 -1.7102 -4.1977 -8.3116 -2.5163 -17.1668 0.1925 -1.0141 0.4218 -2.0558 0.686 -3.1206 3.8506 0.8515 8.1124 1.4642 12.6675 1.8335 2.601 3.6597 5.3246 7.0237 8.0693 9.9691 -0.5997 0.579 -1.197 1.1301 -1.791 1.6495 -3.647 3.1879 -7.3018 5.4497 -10.5227 6.5873ZM19.4874 59.3329c-4.5835 -1.5666 -8.3688 -3.6027 -10.96341 -5.8246 -2.33142 -1.9966 -3.50851 -3.9788 -3.50851 -5.5872 0 -3.4229 5.10302 -7.7887 13.61402 -10.7561 1.0327 -0.3601 2.1138 -0.6994 3.2356 -1.0182 1.1763 3.8263 2.7193 7.8267 4.5814 11.872 -1.8862 4.1053 -3.4511 8.1695 -4.6389 12.0406 -0.7998 -0.2299 -1.5746 -0.4719 -2.3202 -0.7265Zm4.5452 -30.9389c-1.7666 -9.0282 -0.5933 -15.8388 2.359 -17.5478 3.1448 -1.82055 10.0987 0.7752 17.4279 7.2831 0.4685 0.4159 0.9389 0.8513 1.4105 1.3017 -2.7311 2.9326 -5.4298 6.2713 -8.0077 9.9095 -4.4209 0.4097 -8.6527 1.068 -12.5435 1.9494 -0.2446 -0.984 -0.4613 -1.9508 -0.6462 -2.8959Zm40.5473 10.0121c-0.9301 -1.6065 -1.885 -3.1752 -2.8584 -4.7009 2.9992 0.3791 5.8727 0.8824 8.5712 1.4983 -0.8101 2.5964 -1.8199 5.3112 -3.0085 8.0942 -0.8527 -1.6188 -1.7546 -3.251 -2.7043 -4.8916ZM48.0448 22.3009c1.8523 2.0066 3.7072 4.247 5.5316 6.6778 -1.8385 -0.0868 -3.6998 -0.132 -5.5764 -0.132 -1.8589 0 -3.7064 0.0442 -5.5336 0.1295 1.8263 -2.4082 3.6973 -4.6456 5.5784 -6.6753Zm-16.641 16.133c-0.9291 1.6111 -1.8142 3.2345 -2.6535 4.8608 -1.1694 -2.7733 -2.1698 -5.5004 -2.987 -8.1337 2.682 -0.6002 5.542 -1.0909 8.5221 -1.4629 -0.9872 1.5399 -1.9499 3.1204 -2.8816 4.7358Zm2.9674 23.9965c-3.079 -0.3435 -5.982 -0.8089 -8.6632 -1.3926 0.8302 -2.6802 1.8527 -5.4656 3.0468 -8.2986 0.8415 1.6251 1.7301 3.2491 2.6649 4.8638 0.9522 1.6449 1.9389 3.2561 2.9515 4.8274Zm13.7847 11.3939c-1.9032 -2.0535 -3.8016 -4.325 -5.6557 -6.7683 1.7999 0.0706 3.6349 0.1067 5.4998 0.1067 1.916 0 3.81 -0.0432 5.6743 -0.1261 -1.8305 2.4873 -3.6787 4.7623 -5.5184 6.7877Zm19.1666 -21.2295c1.2564 2.8636 2.3155 5.6344 3.1564 8.269 -2.7254 0.6218 -5.6681 1.1226 -8.7685 1.4947 0.9758 -1.5464 1.9391 -3.1419 2.8856 -4.7832 0.9576 -1.6604 1.8668 -3.3234 2.7265 -4.9805Zm-6.2049 2.9744c-1.4694 2.5478 -2.9779 4.9799 -4.5094 7.2757 -2.7894 0.1994 -5.6711 0.3022 -8.6082 0.3022 -2.9252 0 -5.7707 -0.0909 -8.5107 -0.2687 -1.5932 -2.3259 -3.1345 -4.7653 -4.5945 -7.2873 -1.4562 -2.5151 -2.7961 -5.0515 -4.0105 -7.5737 1.2141 -2.528 2.5508 -5.0672 3.9986 -7.5778l-0.0004 0.0005c1.4517 -2.5173 2.9795 -4.9448 4.558 -7.2561 2.7955 -0.2114 5.6622 -0.3216 8.5593 -0.3216 2.9102 0 5.7807 0.1111 8.5755 0.3242 1.5543 2.2945 3.0718 4.7141 4.5291 7.2317 1.4739 2.5459 2.8279 5.0683 4.0523 7.5421 -1.2208 2.5163 -2.5717 5.064 -4.0391 7.6088Zm8.2838 -44.8424c3.1478 1.8152 4.3719 9.1361 2.3942 18.736 -0.1262 0.6125 -0.2682 1.2365 -0.4225 1.8688 -3.8999 -0.8999 -8.1347 -1.5695 -12.5685 -1.9854 -2.5829 -3.6782 -5.2595 -7.0221 -7.9461 -9.917 0.7223 -0.6949 1.4436 -1.3575 2.1619 -1.9827 6.9397 -6.0394 13.4258 -8.42387 16.381 -6.7197ZM48 39.5272c4.6357 0 8.3939 3.758 8.3939 8.3939 0 4.6357 -3.7582 8.3938 -8.3939 8.3938s-8.3939 -3.7581 -8.3939 -8.3938c0 -4.6359 3.7582 -8.3939 8.3939 -8.3939Z" stroke-width="1"></path>
</svg>