<svg xmlns="http://www.w3.org/2000/svg" fill="none" viewBox="0 0 96 96" id="Redis--Streamline-Svg-Logos">
  <desc>
    Redis Streamline Icon: https://streamlinehq.com
  </desc>
  <path fill="#912626" d="M91.317 69.6883c-5.0163 2.6148 -31.003 13.2996 -36.5356 16.1836 -5.5322 2.8847 -8.6056 2.8568 -12.976 0.7674C37.435 84.55 9.78046 73.3794 4.79904 70.9985 2.30906 69.8084 1 68.8041 1 67.8553V58.354s36.0024 -7.8379 41.8148 -9.9228c5.812 -2.0854 7.8287 -2.1606 12.7748 -0.3489C60.5362 49.8945 90.1115 55.2306 95 57.0211c0 0 -0.0022 8.4859 -0.0022 9.3668 0.0007 0.9393 -1.1273 1.9697 -3.6808 3.3004Z" stroke-width="1"></path>
  <path fill="#c6302b" d="M91.3152 60.2434C86.2991 62.857 60.3133 73.5421 54.7809 76.426c-5.5321 2.885 -8.6054 2.8567 -12.9757 0.7674 -4.3706 -2.0878 -32.02386 -13.2602 -37.00512 -15.6399 -4.981264 -2.3812 -5.085912 -4.02 -0.19241 -5.936C9.50081 53.7008 37.0024 42.911 42.8153 40.8258c5.8119 -2.0846 7.8281 -2.1606 12.7741 -0.3481 4.9464 1.8117 30.7773 12.0933 35.6653 13.8833 4.8891 1.7923 5.0767 3.2676 0.0605 5.8824Z" stroke-width="1"></path>
  <path fill="#912626" d="M91.317 54.3147c-5.0163 2.6148 -31.003 13.2995 -36.5356 16.1846 -5.5322 2.8836 -8.6056 2.8557 -12.976 0.7664 -4.3708 -2.0883 -32.02494 -13.26 -37.00636 -15.6409C2.30906 54.4347 1 53.4315 1 52.4827v-9.5024s36.0024 -7.8375 41.8148 -9.9228c5.812 -2.0849 7.8287 -2.1606 12.7748 -0.3488 4.9466 1.8121 34.5219 7.1471 39.4104 8.938 0 0 -0.0022 8.4859 -0.0022 9.3679 0.0007 0.939 -1.1273 1.9693 -3.6808 3.3001Z" stroke-width="1"></path>
  <path fill="#c6302b" d="M91.3152 44.8696c-5.0161 2.6144 -31.0019 13.2988 -36.5343 16.1838 -5.5321 2.8839 -8.6054 2.8556 -12.9757 0.7663 -4.3706 -2.0878 -32.02386 -13.2598 -37.00512 -15.6399 -4.981264 -2.3805 -5.085912 -4.0196 -0.19241 -5.9363C9.50081 38.3278 37.0024 27.5373 42.8153 25.4524c5.8119 -2.0849 7.8281 -2.1605 12.7741 -0.3484 4.9464 1.8117 30.7773 12.0925 35.6653 13.8833 4.8891 1.7915 5.0767 3.268 0.0605 5.8823Z" stroke-width="1"></path>
  <path fill="#912626" d="M91.317 38.3703c-5.0163 2.6148 -31.003 13.3 -36.5356 16.1851 -5.5322 2.8839 -8.6056 2.8557 -12.976 0.7663 -4.3708 -2.0883 -32.02494 -13.2603 -37.00636 -15.6405C2.30906 38.4908 1 37.4872 1 36.5391v-9.5027s36.0024 -7.8372 41.8148 -9.9221c5.812 -2.0853 7.8287 -2.1606 12.7748 -0.3489 4.9466 1.8122 34.5219 7.1472 39.4104 8.938 0 0 -0.0022 8.486 -0.0022 9.3676 0.0007 0.9382 -1.1273 1.9686 -3.6808 3.2993Z" stroke-width="1"></path>
  <path fill="#c6302b" d="M91.3152 28.9254c-5.0161 2.6143 -31.0019 13.2995 -36.5343 16.1837 -5.5321 2.8839 -8.6054 2.8556 -12.9757 0.7671 -4.3703 -2.0886 -32.02386 -13.2599 -37.00512 -15.6404 -4.981264 -2.3804 -5.085912 -4.0199 -0.19241 -5.9363C9.50081 22.3836 37.0024 11.5941 42.8153 9.5085c5.8119 -2.08525 7.8281 -2.16016 12.7741 -0.34809C60.5358 10.9725 86.3667 21.2534 91.2547 23.0441c4.8891 1.7904 5.0767 3.2669 0.0605 5.8813Z" stroke-width="1"></path>
  <path fill="#ffffff" d="m59.4868 19.682 -8.0814 0.8391 -1.8094 4.3532 -2.9223 -4.8578 -9.3319 -0.8387 6.9633 -2.5111 -2.0891 -3.8547 6.5191 2.5497 6.1461 -2.0123 -1.6611 3.9859 6.2667 2.3467Z" stroke-width="1"></path>
  <path fill="#ffffff" d="m49.1133 40.8021 -15.083 -6.2558 21.613 -3.3173 -6.53 9.5731Z" stroke-width="1"></path>
  <path fill="#ffffff" d="M28.2032 22.1021c6.3799 0 11.5518 2.0049 11.5518 4.4777 0 2.4732 -5.1719 4.4778 -11.5518 4.4778 -6.3796 0 -11.5518 -2.0046 -11.5518 -4.4778 0 -2.4728 5.1722 -4.4777 11.5518 -4.4777Z" stroke-width="1"></path>
  <path fill="#621b1c" d="m69.0381 20.8726 12.7913 5.0548 -12.7804 5.0498 -0.0109 -10.1046Z" stroke-width="1"></path>
  <path fill="#9a2928" d="m54.8867 26.4703 14.1514 -5.5977 0.0109 10.1046 -1.3874 0.5429 -12.7749 -5.0498Z" stroke-width="1"></path>
</svg>