<svg xmlns="http://www.w3.org/2000/svg" fill="none" viewBox="0 0 96 96" id="Typescript-Icon--Streamline-Svg-Logos">
  <desc>
    Typescript Icon Streamline Icon: https://streamlinehq.com
  </desc>
  <path fill="#3178c6" d="M8.34375 1H87.6562C91.7121 1 95 4.28791 95 8.34375V87.6562C95 91.7121 91.7121 95 87.6562 95H8.34375C4.28791 95 1 91.7121 1 87.6562V8.34375C1 4.28791 4.28791 1 8.34375 1Z" stroke-width="1"></path>
  <path fill="#ffffff" d="M56.2683 74.6119v10.1417c1.6494 0.8453 3.6003 1.4791 5.8523 1.9017 2.2519 0.4226 4.6254 0.6338 7.1208 0.6338 2.4315 0 4.7419 -0.2325 6.9303 -0.6973 2.1885 -0.4649 4.1078 -1.2308 5.7568 -2.2975 1.6494 -1.0671 2.9551 -2.4616 3.9175 -4.1838 0.962 -1.7217 1.4431 -3.8503 1.4431 -6.3857 0 -1.8381 -0.2751 -3.4494 -0.8247 -4.8333 -0.5497 -1.3839 -1.3428 -2.6147 -2.3791 -3.6921 -1.0358 -1.0777 -2.2783 -2.0441 -3.7265 -2.9 -1.4486 -0.8556 -3.0822 -1.6637 -4.9009 -2.4242 -1.3321 -0.5497 -2.5266 -1.0828 -3.5841 -1.6006 -1.0571 -0.5177 -1.956 -1.0457 -2.6959 -1.5847 -0.7402 -0.5387 -1.3112 -1.1093 -1.7129 -1.7115 -0.4017 -0.6022 -0.6026 -1.2833 -0.6026 -2.0441 0 -0.6973 0.1796 -1.3256 0.5391 -1.8855 0.3594 -0.56 0.8673 -1.0406 1.5227 -1.442 0.6554 -0.4017 1.4588 -0.7131 2.4106 -0.9352 0.9513 -0.2218 2.0088 -0.3327 3.1717 -0.3327 0.846 0 1.7394 0.0635 2.6801 0.1902 0.9411 0.1267 1.8874 0.322 2.8391 0.5864 0.9514 0.264 1.8764 0.5967 2.7752 0.9984 0.8985 0.4013 1.7287 0.8662 2.4899 1.3942v-9.476c-1.5436 -0.5915 -3.2301 -1.03 -5.0591 -1.3153 -1.8289 -0.2853 -3.9278 -0.4277 -6.2961 -0.4277 -2.4106 0 -4.6942 0.2588 -6.851 0.7766 -2.1569 0.5173 -4.0549 1.3255 -5.6936 2.4241 -1.6388 1.099 -2.9339 2.4987 -3.8856 4.1996 -0.9514 1.7008 -1.4273 3.7343 -1.4273 6.1008 0 3.0212 0.8721 5.5989 2.617 7.7329 1.7445 2.1338 4.3926 3.9403 7.9452 5.4194 1.3957 0.5706 2.6962 1.1302 3.9013 1.6798 1.2055 0.5494 2.2469 1.1196 3.1244 1.7111 0.8776 0.5916 1.5701 1.236 2.0776 1.9333 0.5074 0.6973 0.7612 1.4897 0.7612 2.3772 0 0.6547 -0.1587 1.2623 -0.4759 1.8223 -0.3169 0.5596 -0.7983 1.0458 -1.4431 1.4577 -0.6447 0.412 -1.4485 0.7341 -2.4105 0.9665 -0.9621 0.2324 -2.0882 0.3488 -3.3782 0.3488 -2.1991 0 -4.3768 -0.3855 -6.5337 -1.157 -2.1572 -0.7711 -4.1555 -1.9277 -5.9951 -3.4703ZM39.3645 49.374h13.0417v-8.3506H16.0547v8.3506h12.9781v37.1807h10.3317V49.374Z" stroke-width="1"></path>
</svg>